<svg width="512" height="512" viewBox="0 0 512 512" fill="none" xmlns="http://www.w3.org/2000/svg">
<path d="M394.128 178.997C394.128 100.633 327.954 37.1735 248.416 41.1798C176.365 45.3464 119.61 104.559 118 176.593C118 212.409 131.364 245.741 154.871 271.943C193.271 312.887 188.36 360.081 188.36 360.081C188.36 369.216 195.928 376.747 205.105 376.747H307.345C316.523 376.747 324.09 369.216 324.895 360.081C324.895 360.081 319.26 313.849 357.58 272.744C381.087 247.664 394.531 214.332 394.531 178.997H394.128Z" fill="#69EBD0"/>
<path d="M274.178 116.018C235.053 130.28 214.202 155.199 218.227 190.775C212.97 187.874 210.346 179.317 209.13 167.779C199.872 179.557 192.788 194.381 192.788 210.967C192.788 237.008 206.876 264.251 230.383 276.75C237.5 280.156 243.908 282.063 250.912 282.896C226.841 278.729 212.431 245.798 228.451 225.526C229.095 231.487 236.429 240.67 239.158 242.192C232.509 225.125 233.427 197.482 252.039 187.786C252.176 219.516 283.597 223.523 277.8 257.416C283.162 251.366 285.851 241.711 286.334 234.099C294.867 253.49 288.169 269.034 276.029 276.886C269.122 281.382 262.424 283.329 256.145 283.353C313.947 286.109 334.636 216.127 306.782 172.779C306.139 190.166 302.885 203.146 297.121 212.922C294.674 180.791 250.348 147.299 274.258 116.771L274.178 116.018Z" fill="#2A9DF4"/>
<path d="M146.936 418.373H180.777V427.948H157.019V440.968H178.381V450.543H157.019V471.977H146.936V418.373Z" fill="#69EBD0"/>
<path d="M189.761 418.373H199.844V462.342H222.404V471.917H189.761V418.373Z" fill="#69EBD0"/>
<path d="M245.663 418.373H257.243L277.308 471.957H266.227L261.755 459.137H241.291L236.819 471.957H225.738L245.663 418.373ZM258.441 449.822L251.513 429.891L244.505 449.822H258.441Z" fill="#69EBD0"/>
<path d="M270.185 418.213H281.764L301.829 471.797H290.749L286.276 458.977H265.812L261.34 471.797H250.26L270.185 418.213ZM282.962 449.662L276.034 429.731L269.027 449.662H282.962Z" fill="#2A9DF4"/>
<path d="M308.118 418.213H321.095L335.57 455.872L350.044 418.213H363.122V471.797H353.139V436.541L339.563 471.797H331.737L318.061 436.541V471.797H308.148L308.118 418.213Z" fill="#2A9DF4"/>
</svg>
